<svg xmlns="http://www.w3.org/2000/svg" viewBox="0 0 290 240" width="290" height="240"><defs><radialGradient id="s3d_86a070" cx="0.35" cy="0.28" r="0.9"><stop offset="0" stop-color="#aabc9b"/><stop offset="0.45" stop-color="#86a070"/><stop offset="1" stop-color="#6b805a"/></radialGradient></defs><defs><radialGradient id="sphere" cx="30%" cy="25%" r="80%" fx="28%" fy="20%"><stop offset="0%" stop-color="#dcead0"/><stop offset="55%" stop-color="#b8d4a0"/><stop offset="100%" stop-color="#6e7f60"/></radialGradient></defs>
<circle cx="145" cy="120" r="98" fill="url(#sphere)"></circle>
<path d="M145 218 Q65 200 60 130 Q65 200 145 205 Q225 200 230 130 Q225 200 145 218 Z" fill="url(#s3d_86a070)" data-flat="#86a070" opacity="0.5"></path><g transform="translate(145.000 120.000) scale(0.160000 -0.160000) translate(-358.500 -357.000)"><path d="M387 -11Q232 -11 147.0 83.5Q62 178 62 350Q62 464 102.0 548.0Q142 632 217.5 678.5Q293 725 400 725Q446 725 492.0 714.0Q538 703 576.0 684.5Q614 666 635 643V523H568L562 611Q539 632 494.5 644.5Q450 657 400 657Q278 657 214.0 579.5Q150 502 150 353Q150 209 212.0 133.0Q274 57 392 57Q478 57 529.5 96.0Q581 135 581 199Q581 261 552.0 289.0Q523 317 461 317L458 223H394V464H458L461 378Q655 374 655 205Q655 137 618.5 88.5Q582 40 521.5 14.5Q461 -11 387 -11Z" fill="#1a1a1a"/></g></svg>