<svg viewBox="0 0 32 32" width="200" height="200" xmlns="http://www.w3.org/2000/svg" data-copyright="© 2026 Sensory App House"><!--SAH-COPYRIGHT © 2026 Sensory App House. All rights reserved.--><metadata id="sah-copyright"><rdf:RDF xmlns:rdf="http://www.w3.org/1999/02/22-rdf-syntax-ns#" xmlns:dc="http://purl.org/dc/elements/1.1/" xmlns:cc="http://creativecommons.org/ns#"><cc:Work rdf:about=""><dc:rights><cc:Agent><dc:title>© 2026 Sensory App House. All rights reserved.</dc:title></cc:Agent></dc:rights><dc:creator><cc:Agent><dc:title>Sensory App House (PiCom)</dc:title></cc:Agent></dc:creator><dc:date>2026</dc:date></cc:Work></rdf:RDF></metadata>
 <defs>
  <linearGradient id="es-step" x1="0" y1="0" x2="0" y2="1">
   <stop offset="0%" stop-color="#9aa6b6"/>
   <stop offset="100%" stop-color="#5d6a7d"/>
  </linearGradient>
  <linearGradient id="es-rail" x1="0" y1="0" x2="1" y2="1">
   <stop offset="0%" stop-color="#5aa6dc"/>
   <stop offset="100%" stop-color="#2a6fa8"/>
  </linearGradient>
  <linearGradient id="es-side" x1="0" y1="0" x2="0" y2="1">
   <stop offset="0%" stop-color="#cdd6e2"/>
   <stop offset="100%" stop-color="#8e9bac"/>
  </linearGradient>
  <radialGradient id="es-head" cx="0.4" cy="0.35" r="0.8">
   <stop offset="0%" stop-color="#ffd9b0"/>
   <stop offset="100%" stop-color="#e8a878"/>
  </radialGradient>
 </defs>
 <!-- side panel under steps -->
 <path d="M5 27 L24 9.5 Q26 7.7 28 8.5 L28.5 9.5 L9.5 27 Z" fill="url(#es-side)"/>
 <!-- staircase steps (rising left->right) -->
 <g fill="url(#es-step)" stroke="#46505f" stroke-width="0.3">
  <path d="M4 26 H8 V23 H6 Z"/>
  <path d="M7 23 H11 V20 H9 Z"/>
  <path d="M10 20 H14 V17 H12 Z"/>
  <path d="M13 17 H17 V14 H15 Z"/>
  <path d="M16 14 H20 V11 H18 Z"/>
  <path d="M19 11 H23 V8.5 H21 Z"/>
 </g>
 <!-- step highlight edges -->
 <g fill="#ffffff" fill-opacity="0.3">
  <rect x="4" y="22.7" width="4" height="0.6"/>
  <rect x="7" y="19.7" width="4" height="0.6"/>
  <rect x="10" y="16.7" width="4" height="0.6"/>
  <rect x="13" y="13.7" width="4" height="0.6"/>
  <rect x="16" y="10.7" width="4" height="0.6"/>
 </g>
 <!-- handrail -->
 <path d="M6 21.5 L25 4.5" fill="none" stroke="url(#es-rail)" stroke-width="2.4" stroke-linecap="round"/>
 <path d="M6 21.5 L25 4.5" fill="none" stroke="#9fd0f0" stroke-width="0.8" stroke-linecap="round" opacity="0.6"/>
 <!-- rider -->
 <circle cx="15.2" cy="11.2" r="2.1" fill="url(#es-head)"/>
 <path d="M12.8 21 Q12.8 14.5 15.2 14 Q17.6 14.5 17.6 21 Z" fill="#e3553c"/>
</svg>
