<svg viewBox="0 0 32 32" width="200" height="200" xmlns="http://www.w3.org/2000/svg" data-copyright="© 2026 Sensory App House"><!--SAH-COPYRIGHT © 2026 Sensory App House. All rights reserved.--><metadata id="sah-copyright"><rdf:RDF xmlns:rdf="http://www.w3.org/1999/02/22-rdf-syntax-ns#" xmlns:dc="http://purl.org/dc/elements/1.1/" xmlns:cc="http://creativecommons.org/ns#"><cc:Work rdf:about=""><dc:rights><cc:Agent><dc:title>© 2026 Sensory App House. All rights reserved.</dc:title></cc:Agent></dc:rights><dc:creator><cc:Agent><dc:title>Sensory App House (PiCom)</dc:title></cc:Agent></dc:creator><dc:date>2026</dc:date></cc:Work></rdf:RDF></metadata><defs><radialGradient id="br" cx="16" cy="18" r="10"><stop offset="0" stop-color="#F5D9B0"/><stop offset="1" stop-color="#8B5A2B"/></radialGradient><radialGradient id="jm" cx="16" cy="14" r="8"><stop offset="0" stop-color="#FF6B6B"/><stop offset="1" stop-color="#8B0000"/></radialGradient></defs><path d="M 4 14 L 28 14 L 28 22 Q 28 24 26 24 L 6 24 Q 4 24 4 22 Z" fill="url(#br)"/><path d="M 5 13 L 27 13 L 27 14 L 5 14 Z" fill="#6B4423"/><path d="M 6 16 Q 9 14 12 16 Q 15 14 18 16 Q 21 14 24 16 Q 26 17 26 18 L 26 19 L 6 19 Z" fill="url(#jm)"/><circle cx="9" cy="17" r="0.4" fill="#FFFFFF" opacity="0.6"/><circle cx="14" cy="17" r="0.3" fill="#FFFFFF" opacity="0.6"/><circle cx="20" cy="17" r="0.4" fill="#FFFFFF" opacity="0.6"/><path d="M 8 8 L 22 6 L 23 8 L 9 10 Z" fill="#C8D4DE" transform="rotate(-15 15 8)"/><path d="M 23 7 L 25 5 L 27 7 L 25 9 Z" fill="#3D2817" transform="rotate(-15 25 7)"/></svg>