<svg viewBox="0 0 32 32" width="200" height="200" xmlns="http://www.w3.org/2000/svg" data-copyright="© 2026 Sensory App House"><g transform="translate(0.000,4.762) scale(0.8512)"><!--SAH-COPYRIGHT © 2026 Sensory App House. All rights reserved.--><metadata id="sah-copyright"><rdf:RDF xmlns:rdf="http://www.w3.org/1999/02/22-rdf-syntax-ns#" xmlns:dc="http://purl.org/dc/elements/1.1/" xmlns:cc="http://creativecommons.org/ns#"><cc:Work rdf:about=""><dc:rights><cc:Agent><dc:title>© 2026 Sensory App House. All rights reserved.</dc:title></cc:Agent></dc:rights><dc:creator><cc:Agent><dc:title>Sensory App House (PiCom)</dc:title></cc:Agent></dc:creator><dc:date>2026</dc:date></cc:Work></rdf:RDF></metadata>
 <defs>
 <linearGradient id="rakeHandle" x1="0%" y1="0%" x2="100%" y2="100%"><stop offset="0%" stop-color="#C8A030"/><stop offset="100%" stop-color="#7A5800"/></linearGradient>
 <linearGradient id="rakeMetal" x1="0%" y1="0%" x2="100%" y2="100%"><stop offset="0%" stop-color="#B8B8C8"/><stop offset="100%" stop-color="#4A4A6A"/></linearGradient>
 </defs>
 <!-- Handle (diagonal) -->
 <line x1="26" y1="3" x2="16" y2="21" stroke="url(#rakeHandle)" stroke-width="2" stroke-linecap="round" filter="url(#sdRake)"/>
 <!-- Rake head bar -->
 <rect x="8" y="19.5" width="18" height="1.8" rx="0.5" fill="url(#rakeMetal)" filter="url(#sdRake)"/>
 <!-- Tines (curved downward) -->
 <path d="M9 21.3 Q9.5 25 10 26.5" stroke="url(#rakeMetal)" stroke-width="1.2" fill="none" stroke-linecap="round"/>
 <path d="M11.5 21.3 Q12 25 12.5 26.5" stroke="url(#rakeMetal)" stroke-width="1.2" fill="none" stroke-linecap="round"/>
 <path d="M14 21.3 Q14.5 25 15 26.5" stroke="url(#rakeMetal)" stroke-width="1.2" fill="none" stroke-linecap="round"/>
 <path d="M16.5 21.3 Q17 25 17.5 26.5" stroke="url(#rakeMetal)" stroke-width="1.2" fill="none" stroke-linecap="round"/>
 <path d="M19 21.3 Q19.5 25 20 26.5" stroke="url(#rakeMetal)" stroke-width="1.2" fill="none" stroke-linecap="round"/>
 <path d="M21.5 21.3 Q22 25 22.5 26.5" stroke="url(#rakeMetal)" stroke-width="1.2" fill="none" stroke-linecap="round"/>
 <path d="M24 21.3 Q24.5 25 25 26.5" stroke="url(#rakeMetal)" stroke-width="1.2" fill="none" stroke-linecap="round"/>
</g><g transform="translate(0,0) scale(0.0625) translate(360 8) scale(0.2812)"><defs><radialGradient id="pl1880" cx="40%" cy="35%" r="65%"><stop offset="0%" stop-color="#7ed957"/><stop offset="100%" stop-color="#3aa324"/></radialGradient></defs><path d="M 256.0,56.0 L 281.0,212.7 L 429.2,156.0 L 306.0,256.0 L 429.2,356.0 L 281.0,299.3 L 256.0,456.0 L 231.0,299.3 L 82.8,356.0 L 206.0,256.0 L 82.8,156.0 L 231.0,212.7 Z" fill="url(#pl1880)" stroke="#1a1a1a" stroke-width="14" stroke-linejoin="round"/></g></svg>
