<svg viewBox="0 0 32 32" width="200" height="200" xmlns="http://www.w3.org/2000/svg" data-copyright="© 2026 Sensory App House"><!--SAH-COPYRIGHT © 2026 Sensory App House. All rights reserved.--><metadata id="sah-copyright"><rdf:RDF xmlns:rdf="http://www.w3.org/1999/02/22-rdf-syntax-ns#" xmlns:dc="http://purl.org/dc/elements/1.1/" xmlns:cc="http://creativecommons.org/ns#"><cc:Work rdf:about=""><dc:rights><cc:Agent><dc:title>© 2026 Sensory App House. All rights reserved.</dc:title></cc:Agent></dc:rights><dc:creator><cc:Agent><dc:title>Sensory App House (PiCom)</dc:title></cc:Agent></dc:creator><dc:date>2026</dc:date></cc:Work></rdf:RDF></metadata>
 <defs>
 <radialGradient id="ground" cx="0.5" cy="0.5" r="0.7">
 <stop offset="0" stop-color="#a89880"/>
 <stop offset="1" stop-color="#5a4a30"/>
 </radialGradient>
 <radialGradient id="pud" cx="0.4" cy="0.35" r="0.8">
 <stop offset="0" stop-color="#c8e8ff"/>
 <stop offset="0.5" stop-color="#5aa0d0"/>
 <stop offset="1" stop-color="#1a4870"/>
 </radialGradient>
 <radialGradient id="drop" cx="0.4" cy="0.3" r="0.8">
 <stop offset="0" stop-color="#d8eeff"/>
 <stop offset="1" stop-color="#3a80b8"/>
 </radialGradient>
 </defs>
 <ellipse cx="16" cy="22" rx="14" ry="6" fill="url(#ground)"/>
 <ellipse cx="16" cy="20.5" rx="11" ry="4.5" fill="url(#pud)"/>
 <ellipse cx="13" cy="19" rx="4" ry="1.2" fill="#fff" opacity="0.45"/>
 <ellipse cx="19" cy="21.5" rx="2.5" ry="0.7" fill="#fff" opacity="0.3"/>
 <ellipse cx="11" cy="20.5" rx="1.5" ry="0.4" fill="#fff" opacity="0.4"/>
 <circle cx="16" cy="20" r="2.5" fill="none" stroke="#fff" stroke-width="0.3" opacity="0.5"/>
 <circle cx="16" cy="20" r="4" fill="none" stroke="#fff" stroke-width="0.3" opacity="0.35"/>
 <path d="M 16 6 Q 13 11 13 13 Q 13 15.5 16 15.5 Q 19 15.5 19 13 Q 19 11 16 6 Z" fill="url(#drop)"/>
 <ellipse cx="15" cy="10" rx="0.7" ry="1.4" fill="#fff" opacity="0.65"/>
 <path d="M 22 8 Q 21 10 21 11 Q 21 12 22 12 Q 23 12 23 11 Q 23 10 22 8 Z" fill="url(#drop)"/>
 <path d="M 9 9 Q 8 11 8 12 Q 8 13 9 13 Q 10 13 10 12 Q 10 11 9 9 Z" fill="url(#drop)"/>
</svg>
