<svg xmlns="http://www.w3.org/2000/svg" viewBox="0 0 290 240" width="290" height="240"><defs><radialGradient id="sphere" cx="30%" cy="25%" r="80%" fx="28%" fy="20%"><stop offset="0%" stop-color="#fae8bc"/><stop offset="55%" stop-color="#f4d27a"/><stop offset="100%" stop-color="#927e49"/></radialGradient></defs><circle cx="145" cy="120" r="98" fill="url(#sphere)"></circle><path d="M145 218 Q65 200 60 130 Q65 200 145 205 Q225 200 230 130 Q225 200 145 218 Z" fill="#d8a838" opacity="0.5"></path><g transform="translate(145.000 120.000) scale(0.716621) translate(-145.000 -120.000)"><g transform="translate(145.000 120.000) scale(0.160000 -0.160000) translate(-719.500 -357.000)"><g transform="translate(0.000 0)"><path d="M401 0 638 714H476L315 212H313L154 714H-7L224 0Z" fill="#1a1a1a"/></g><g transform="translate(630.000 0)"><path d="M69 714V0H226V714Z" fill="#1a1a1a"/></g><g transform="translate(925.000 0)"><path d="M69 714V0H226V714Z" fill="#1a1a1a"/></g><g transform="translate(1220.000 0)"><path d="M69 714V0H226V714Z" fill="#1a1a1a"/></g></g></g></svg>