<svg viewBox="0 0 32 32" width="200" height="200" xmlns="http://www.w3.org/2000/svg" data-copyright="© 2026 Sensory App House"><!--SAH-COPYRIGHT © 2026 Sensory App House. All rights reserved.--><metadata id="sah-copyright"><rdf:RDF xmlns:rdf="http://www.w3.org/1999/02/22-rdf-syntax-ns#" xmlns:dc="http://purl.org/dc/elements/1.1/" xmlns:cc="http://creativecommons.org/ns#"><cc:Work rdf:about=""><dc:rights><cc:Agent><dc:title>© 2026 Sensory App House. All rights reserved.</dc:title></cc:Agent></dc:rights><dc:creator><cc:Agent><dc:title>Sensory App House (PiCom)</dc:title></cc:Agent></dc:creator><dc:date>2026</dc:date></cc:Work></rdf:RDF></metadata>
 <defs>
 <linearGradient id="csHull" x1="0%" y1="0%" x2="100%" y2="100%"><stop offset="0%" stop-color="#4A4A5A"/><stop offset="100%" stop-color="#1A1A2A"/></linearGradient>
 <linearGradient id="csWater" x1="0%" y1="0%" x2="0%" y2="100%"><stop offset="0%" stop-color="#3A8ABF"/><stop offset="100%" stop-color="#1A4A7A"/></linearGradient>
 <linearGradient id="cont1" x1="0%" y1="0%" x2="100%" y2="100%"><stop offset="0%" stop-color="#E84A4A"/><stop offset="100%" stop-color="#6B1A1A"/></linearGradient>
 <linearGradient id="cont2" x1="0%" y1="0%" x2="100%" y2="100%"><stop offset="0%" stop-color="#4A8AE8"/><stop offset="100%" stop-color="#1A3A98"/></linearGradient>
 <linearGradient id="cont3" x1="0%" y1="0%" x2="100%" y2="100%"><stop offset="0%" stop-color="#F6A623"/><stop offset="100%" stop-color="#A86010"/></linearGradient>
 </defs>
 <!-- Water -->
 <rect x="0" y="22" width="32" height="10" fill="url(#csWater)"/>
 <!-- Hull -->
 <path d="M2 22 L2 25 Q2 28 5 28 L27 28 Q30 28 30 25 L30 22 Z" fill="url(#csHull)" filter="url(#sdCS)"/>
 <!-- Deck/upper hull level -->
 <rect x="2" y="19" width="28" height="3" fill="#5A5A6A"/>
 <!-- Bridge/superstructure -->
 <rect x="22" y="13" width="8" height="7" rx="0.8" fill="#7A7A8A" filter="url(#sdCS)"/>
 <rect x="23" y="14" width="2" height="2" rx="0.3" fill="#3A6A9A"/>
 <rect x="26" y="14" width="2" height="2" rx="0.3" fill="#3A6A9A"/>
 <!-- Funnel -->
 <rect x="27" y="9" width="2.5" height="5" rx="0.6" fill="#C84A10" filter="url(#sdCS)"/>
 <!-- Containers row 1 -->
 <rect x="2" y="14" width="6" height="5" rx="0.3" fill="url(#cont1)" filter="url(#sdCS)"/>
 <rect x="9" y="14" width="6" height="5" rx="0.3" fill="url(#cont2)" filter="url(#sdCS)"/>
 <rect x="16" y="14" width="5" height="5" rx="0.3" fill="url(#cont3)" filter="url(#sdCS)"/>
 <!-- Containers row 2 -->
 <rect x="2" y="9" width="6" height="5" rx="0.3" fill="url(#cont3)" filter="url(#sdCS)"/>
 <rect x="9" y="9" width="6" height="5" rx="0.3" fill="url(#cont1)" filter="url(#sdCS)"/>
 <rect x="16" y="9" width="5" height="5" rx="0.3" fill="url(#cont2)" filter="url(#sdCS)"/>
 <!-- Wave -->
 <path d="M0 24 Q4 23 8 24 Q12 25 16 24 Q20 23 24 24 Q28 25 32 24" stroke="white" stroke-opacity="0.3" stroke-width="0.5" fill="none"/>
</svg>
